Coordinates
version=1
nRows=16
nColumns=36
inDegrees=yes

Units are S.I. units (second, meters, Newtons, ...)
If the header above contains a line with 'inDegrees', this indicates whether rotational values are in degrees (yes) or radians (no).

endheader
time	pelvis_tilt	pelvis_list	pelvis_rotation	pelvis_tx	pelvis_ty	pelvis_tz	hip_flexion_r	hip_adduction_r	hip_rotation_r	knee_angle_r	knee_angle_r_beta	ankle_angle_r	subtalar_angle_r	mtp_angle_r	hip_flexion_l	hip_adduction_l	hip_rotation_l	knee_angle_l	knee_angle_l_beta	ankle_angle_l	subtalar_angle_l	mtp_angle_l	lumbar_extension	lumbar_bending	lumbar_rotation	arm_flex_r	arm_add_r	arm_rot_r	elbow_flex_r	pro_sup_r	arm_flex_l	arm_add_l	arm_rot_l	elbow_flex_l	pro_sup_l
     13.30000000	     22.72670378	     -0.12390040	      2.18002264	     -0.64424508	      0.59027501	     -0.61053329	     67.40409066	     -8.67556055	      1.65160235	     92.40503846	      1.61277217	     10.46878746	     -0.15497016	     -7.49999987	     68.56274377	     -5.61269558	      0.99585775	     90.90246569	      1.58654732	      3.97523263	     -9.28909968	     -7.49999987	    -34.94715310	      1.50030385	      1.72228475	     -1.92377397	     -5.35276728	     -8.94642500	    115.84108425	    107.92779491	     -1.06238813	     -2.11128908	     -3.04856376	    116.88204419	    107.37620483
     13.31000000	     23.00537430	     -0.19372704	      2.18563655	     -0.64500132	      0.59022534	     -0.61032483	     67.12562218	     -8.55500357	      1.60472638	     92.37521133	      1.61225158	     10.25578135	     -0.41320889	     -7.49999987	     68.34080426	     -5.63865727	      1.11502536	     90.93407888	      1.58709908	      4.20117447	     -9.00276416	     -7.49999987	    -34.67692484	      1.53089421	      1.82520600	     -2.11458237	     -5.30884533	     -8.81054482	    115.72831630	    107.34179592	     -1.17468151	     -2.41784807	     -2.67303313	    116.84156721	    106.76115600
     13.32000000	     23.22084399	     -0.25864897	      2.23030388	     -0.64564195	      0.59014964	     -0.61020110	     66.91529725	     -8.47497738	      1.55930037	     92.37421993	      1.61223428	     10.14182956	     -0.57868071	     -7.49999987	     68.16453420	     -5.59613420	      1.29111669	     90.92010414	      1.58685517	      4.30382343	     -8.68454277	     -7.49999987	    -34.28298109	      1.56233506	      1.93547093	     -2.29138214	     -5.23217522	     -8.92731733	    115.29307245	    108.84788790	     -1.19956814	     -2.63956937	     -2.46809310	    116.40081490	    108.07383370
     13.33000000	     23.49499941	     -0.27047158	      2.26566090	     -0.64630707	      0.59017919	     -0.61021973	     66.61854512	     -8.42679199	      1.58897514	     92.31703083	      1.61123614	     10.04913920	     -0.70434785	     -7.49999987	     67.92359831	     -5.49648605	      1.39321852	     90.93847935	      1.58717588	      4.28371493	     -8.70623022	     -7.49999987	    -34.02725702	      1.56567919	      1.96396463	     -2.42816057	     -5.21511054	     -8.90685018	    115.06494496	    108.99589045	     -1.23424351	     -2.86510217	     -2.22657202	    116.23213144	    108.07086444
     13.34000000	     23.75716608	     -0.27921732	      2.25092457	     -0.64698267	      0.59023786	     -0.61014785	     66.34490074	     -8.34750176	      1.61185278	     92.28604688	      1.61069537	      9.90926644	     -0.80171424	     -7.49999987	     67.65787941	     -5.45769461	      1.45513679	     90.87904976	      1.58613864	      4.08629606	     -8.97357911	     -7.49999987	    -33.78566659	      1.55730073	      2.01669431	     -2.48693206	     -5.21215420	     -8.82664032	    114.81462844	    108.94559184	     -1.25264257	     -3.08437761	     -2.02286744	    116.07352595	    107.83448822
     13.35000000	     24.06467115	     -0.28096766	      2.23492949	     -0.64765306	      0.59037053	     -0.61015728	     66.01847381	     -8.28009118	      1.65578903	     92.23822668	      1.60986075	      9.78089075	     -0.92092729	     -7.49999987	     67.34877224	     -5.43921954	      1.48602942	     90.87386910	      1.58604822	      4.08615485	     -8.97393980	     -7.49999987	    -33.62631364	      1.54654475	      2.05405946	     -2.48516877	     -5.21765443	     -8.80068518	    114.60796719	    108.93470414	     -1.22937040	     -3.30814674	     -1.85394645	    115.91106680	    107.73367084
     13.36000000	     24.36422194	     -0.28578503	      2.26261028	     -0.64825541	      0.59048476	     -0.61025505	     65.73588434	     -8.26705069	      1.66966838	     92.25157053	      1.61009365	      9.76295016	     -0.90636511	     -7.49999987	     67.05539730	     -5.35005895	      1.55361940	     90.86230686	      1.58584642	      3.95195268	     -9.21732718	     -7.49999987	    -33.46348793	      1.56012816	      2.04964108	     -2.45916822	     -5.24459589	     -8.69271835	    114.36626564	    109.03356410	     -1.19952303	     -3.50745002	     -1.69674781	    115.76627520	    107.74761197
     13.37000000	     24.69335858	     -0.32402121	      2.31405401	     -0.64891467	      0.59062173	     -0.61033697	     65.40135895	     -8.23603594	      1.64736059	     92.25233639	      1.61010701	      9.80788780	     -0.95684250	     -7.49999987	     66.73492312	     -5.23536428	      1.70675820	     90.85252566	      1.58567571	      3.97573330	     -9.23155842	     -7.49999987	    -33.37895333	      1.62099672	      2.05413827	     -2.39338238	     -5.31559851	     -8.59484502	    114.18319495	    109.15507868	     -1.12159114	     -3.70016243	     -1.54120096	    115.64919671	    107.86106634
     13.38000000	     24.97322989	     -0.36162274	      2.35310446	     -0.64947144	      0.59062879	     -0.61035318	     65.12918052	     -8.20675496	      1.61281011	     92.27355162	      1.61047729	      9.74356627	     -1.05871438	     -7.49999987	     66.48246075	     -5.14196817	      1.85138491	     90.86289386	      1.58585667	      3.96574261	     -9.28556729	     -7.49999987	    -33.22960809	      1.65795255	      2.06502489	     -2.35011093	     -5.41666166	     -8.38815146	    113.98719186	    109.00910036	     -1.05037770	     -3.83504658	     -1.42443075	    115.55943102	    107.74575019
     13.39000000	     25.31998650	     -0.36394509	      2.38428125	     -0.65010921	      0.59079961	     -0.61040174	     64.75187975	     -8.21329082	      1.60245250	     92.24042096	      1.60989905	      9.62713506	     -1.16232531	     -7.49999987	     66.13698933	     -5.06997862	      1.91636987	     90.86818544	      1.58594902	      3.96004894	     -9.35050349	     -7.49999987	    -33.22032113	      1.67331719	      2.02750434	     -2.19778924	     -5.60981453	     -8.17938296	    113.83503498	    109.15434695	     -0.95269359	     -3.98385449	     -1.33494654	    115.50947442	    107.77173882
     13.40000000	     25.60785547	     -0.37032149	      2.42886542	     -0.65064307	      0.59086596	     -0.61045989	     64.47214133	     -8.21258017	      1.60661107	     92.26018414	      1.61024398	      9.53867223	     -1.18443635	     -7.49999987	     65.85615140	     -4.96822863	      2.00065679	     90.85810839	      1.58577314	      3.93451153	     -9.46064604	     -7.49999987	    -33.12627589	      1.69889948	      2.01270882	     -2.07720095	     -5.75962592	     -8.02430502	    113.66732694	    109.27481335	     -0.84448156	     -4.13534383	     -1.26986563	    115.41298359	    107.85604216
     13.41000000	     25.87585175	     -0.38857940	      2.45133718	     -0.65120028	      0.59091980	     -0.61050396	     64.19546596	     -8.17806000	      1.61486363	     92.24337783	      1.60995066	      9.50790421	     -1.22975958	     -7.49999987	     65.60199337	     -4.88483635	      2.07999309	     90.87039925	      1.58598766	      3.89355761	     -9.66744377	     -7.49999987	    -33.04790207	      1.72958675	      2.01625909	     -1.96935956	     -5.87566543	     -7.87041064	    113.55241793	    109.25832212	     -0.74744142	     -4.29766738	     -1.16155622	    115.34427506	    107.82877507
     13.42000000	     26.11966378	     -0.40993544	      2.43231512	     -0.65175533	      0.59094827	     -0.61047756	     63.93637969	     -8.09115219	      1.63725700	     92.20917521	      1.60935371	      9.48748451	     -1.31712260	     -7.49999987	     65.36930924	     -4.86155450	      2.14425979	     90.86999939	      1.58598068	      3.83825534	     -9.83389272	     -7.49999987	    -32.95975904	      1.74831456	      2.05441245	     -1.84569661	     -6.00816950	     -7.72792787	    113.43690482	    109.29079162	     -0.64743842	     -4.44592522	     -1.05615142	    115.28775314	    107.73271686
     13.43000000	     26.33819111	     -0.42390834	      2.40057628	     -0.65227935	      0.59096302	     -0.61033039	     63.71198710	     -7.99268441	      1.65425100	     92.16647445	      1.60860844	      9.43526545	     -1.41375293	     -7.49999987	     65.16458157	     -4.87783583	      2.19168156	     90.86487373	      1.58589122	      3.77100001	     -9.93732695	     -7.49999987	    -32.87299701	      1.73088203	      2.06971553	     -1.69011121	     -6.13320371	     -7.53836348	    113.33045907	    109.36596619	     -0.54961216	     -4.58364205	     -1.03033051	    115.25702533	    107.74031253
     13.44000000	     26.56591699	     -0.42932254	      2.38430481	     -0.65275253	      0.59100386	     -0.61015949	     63.49689780	     -7.92678267	      1.65321888	     92.17202232	      1.60870527	      9.36459429	     -1.49452528	     -7.49999987	     64.94361529	     -4.88941219	      2.24570931	     90.87201598	      1.58601588	      3.88707471	     -9.75356990	     -7.49999987	    -32.80702854	      1.70184476	      2.07359947	     -1.58575817	     -6.20526702	     -7.38254621	    113.22510640	    109.45531501	     -0.43129366	     -4.65533679	     -1.07672448	    115.22212218	    107.96111852
     13.45000000	     26.80338425	     -0.39195466	      2.37289617	     -0.65318846	      0.59112046	     -0.61007862	     63.27528254	     -7.90990965	      1.67891601	     92.19066421	      1.60903063	      9.34585673	     -1.50375625	     -7.49999987	     64.70203216	     -4.87380420	      2.21073389	     90.87271311	      1.58602804	      3.68041100	     -9.99373017	     -7.49999987	    -32.77304906	      1.64724733	      2.02700627	     -1.47459215	     -6.17508077	     -7.25995350	    113.17573784	    109.29928732	     -0.35656713	     -4.66758952	     -1.13828693	    115.26282709	    107.82153340
